<?xml version="1.0" standalone="no"?>
<!DOCTYPE svg PUBLIC "-//W3C//DTD SVG 1.1//EN" "http://www.w3.org/Graphics/SVG/1.1/DTD/svg11.dtd" >
<svg xmlns="http://www.w3.org/2000/svg" xmlns:svg="http://www.w3.org/2000/svg" xmlns:xlink="http://www.w3.org/1999/xlink" viewBox="0 0 2048 2048"><path d="M962.06 515.9Q979.34 523.34 995.21 495.83Q1004.7 506.42 1035.6 531.75Q1050.04 547.62 1059.41 543.23Q1063.05 575.98 1038.89 586.03Q1049.8 600.03 1051.44 634.94Q1048.57 641.19 1074.65 654.55Q1058.72 657.52 1065.33 668.62Q1069.49 675.44 1107.18 697.24Q1135.28 685.9 1154.24 710.48Q1193.29 708.44 1208.03 722.46Q1302.33 725.83 1322.26 692.71Q1312.11 698.57 1320.32 702.96Q1391.72 674.24 1365.98 597.09Q1324.13 587.59 1334.26 562.48Q1327.18 557.54 1344.49 540.89Q1398.68 522.47 1438.76 564.09Q1449.59 553.98 1455.92 590.22Q1457.85 615.53 1458.21 637.82Q1433.24 718.04 1456.08 720.05Q1465.07 778.17 1452.79 788.17Q1451.85 797.76 1391.98 787.39Q1229.24 818.13 1136.3 789.73Q1081.58 788.25 1008.75 805.06Q927.35 810.46 878.29 811.11Q859.3 806.73 818.14 815.96Q779.9 772.8 699.52 766.61Q660.98 772.84 665.94 785.89Q642.38 775.01 606.32 777.17Q585.29 754.3 579.9 717.06Q591 721.33 609.11 689.47Q616.19 653.61 614.97 633.96Q597.64 602.46 606.38 578.55Q634.64 587.08 643.93 565.06Q649.17 532.75 674.81 542.09Q697.23 584.51 682.97 570.23Q684.29 589.15 689.48 604.6Q672.85 641.09 716.77 657.78Q724.61 689.38 744.43 703.76Q740.43 695.14 839.81 708.37Q902.1 682.33 934.76 681.84Q956.51 676.43 970.47 677.24Q1003.54 619.78 996.53 623.83Q951.56 548.56 963.67 518.46ZM769.87 860.24Q769 846.08 824.44 869.83Q850.19 862.11 960.77 880.75Q1089.01 891.75 1125.86 897.09Q1203.62 897.7 1338.32 900.42Q1447.22 877.49 1479.54 883.08Q1494.33 925.3 1497.26 954.92Q1486.66 980.3 1492.61 972.88Q1458.05 993.42 1405.77 974.63Q1376.55 973.7 1258.37 968.18Q1065.66 992.38 943.93 953.68Q910.88 952.44 797.77 952.89Q714.94 995.89 723.24 971.45Q697.77 999.48 700.01 1108.32Q714.4 1181.28 704.39 1188.54Q681.32 1256.21 664.08 1302.02Q651.86 1349.65 667.83 1361.66Q659.42 1366.77 625.25 1415.45Q615.92 1465.07 578.85 1445.86Q569.74 1461.11 560.24 1477.91Q553.9 1473.93 513.51 1471.14Q511.67 1440.53 544.07 1396.55Q534.16 1335.09 546.91 1295.14Q572.34 1251.8 571.37 1177.02Q585.52 1129.3 582.44 1091.31Q615.28 1038.94 625.59 991.17Q628.31 968.03 599.61 966.98Q599.51 900.34 623.13 915.63Q646.61 895.46 642.53 889.98Q677.76 867.83 715.44 892.6Q761.49 860.18 770.27 874.55ZM1110.88 1029.89Q1110.8 1026.21 1138.66 1031.24Q1149.87 1039.99 1139 1039.76Q1161.56 1054.61 1155.06 1092.04Q1178.21 1101.42 1180.2 1161.62Q1182.13 1195.51 1202.78 1200.02Q1181.8 1231.21 1225.39 1255.58Q1198.03 1242.49 1233.07 1258.99Q1277.83 1283.75 1268.97 1291.8Q1322.15 1324.91 1329.37 1328.01Q1373.11 1355.46 1422.68 1419.3Q1486.16 1446.51 1486.11 1446.52Q1522.36 1469.56 1505.47 1457.32Q1538.84 1494.38 1501.05 1524.47Q1509.88 1535.06 1450.53 1517.63Q1392.45 1509.62 1372.8 1507.82Q1326.38 1479.83 1296.38 1472.55Q1262.75 1437.27 1222.15 1401.11Q1212.03 1391.8 1202.04 1377.17Q1147.79 1321.92 1112.58 1336.16Q1093.91 1331.22 1096.71 1357.02Q1040.55 1388.89 1033.86 1454.99Q1002.97 1475.87 976.38 1459.77Q954.84 1479.09 876.56 1471.35Q844.87 1482.43 841.65 1466.24Q789.95 1497.67 817.27 1471.19Q786.61 1462.58 807.03 1438.24Q813.65 1427.6 860.84 1402.64Q890.79 1404.52 950.99 1381.36Q939.63 1388.57 949.96 1318.82Q993.65 1297.15 990.28 1284.71Q1012.58 1248.74 1037.97 1207.91Q1084.78 1164.6 1056.69 1114.94Q1057.89 1096.37 1073.19 1079.49Q1093.57 1045.06 1097.84 1028.93ZM874.83 1102.03Q898.61 1082.21 917.88 1125.73Q973.53 1141.59 946.84 1200.85Q966.88 1182.68 918.79 1229.66Q911.36 1236.43 921.9 1216.07Q874.7 1232.24 851.02 1179.07Q784.1 1143.63 794.34 1135.95Q802.01 1106.51 828.89 1120.59Q831.55 1078.49 874.88 1076.77ZM1309.23 1153.62Q1289.34 1143.17 1291.1 1164.52Q1311.55 1186.6 1326.72 1218.46Q1308.85 1232.84 1309.81 1230.89Q1308.25 1241.02 1354.52 1260.99Q1381.71 1250.15 1402.41 1217.85Q1402.46 1215.8 1433.82 1196.01Q1447.95 1176.62 1439.63 1170.51Q1448.07 1143.52 1407.41 1144.27Q1397.02 1105.33 1383.81 1106.09Q1350.04 1123.16 1314.97 1126.91Z" fill="black"></path></svg>