<?xml version="1.0" standalone="no"?>
<!DOCTYPE svg PUBLIC "-//W3C//DTD SVG 1.1//EN" "http://www.w3.org/Graphics/SVG/1.1/DTD/svg11.dtd" >
<svg xmlns="http://www.w3.org/2000/svg" xmlns:svg="http://www.w3.org/2000/svg" xmlns:xlink="http://www.w3.org/1999/xlink" viewBox="0 0 2048 2048"><path d="M982.0 522.0Q999.0 505.0 1011.0 507.0Q1023.0 509.0 1042.0 531.0Q1056.0 548.0 1059.0 558.5Q1062.0 569.0 1058.0 592.0Q1057.0 614.0 1055.0 631.0Q1053.0 648.0 1060.0 660.0Q1067.0 672.0 1076.5 680.0Q1086.0 688.0 1106.0 693.0Q1126.0 698.0 1151.0 700.5Q1176.0 703.0 1214.0 704.0Q1284.0 707.0 1302.5 705.0Q1321.0 703.0 1336.0 690.0Q1374.0 660.0 1346.0 607.0Q1333.0 582.0 1335.0 567.5Q1337.0 553.0 1356.0 544.0Q1394.0 525.0 1427.0 555.0Q1437.0 565.0 1441.5 581.0Q1446.0 597.0 1449.0 636.0Q1453.0 701.0 1458.0 734.0Q1463.0 765.0 1452.0 774.5Q1441.0 784.0 1390.0 794.0Q1217.0 825.0 1122.0 805.0Q1085.0 797.0 1008.5 797.0Q932.0 797.0 880.0 806.0Q866.0 808.0 830.0 797.0Q794.0 786.0 717.0 786.0Q667.0 786.0 649.0 783.0Q631.0 780.0 613.0 767.0Q591.0 752.0 588.5 736.0Q586.0 720.0 602.0 687.0Q613.0 662.0 616.0 623.0Q617.0 599.0 621.5 588.0Q626.0 577.0 639.0 568.0Q660.0 552.0 678.0 562.0Q690.0 568.0 692.5 576.0Q695.0 584.0 692.0 610.0Q688.0 640.0 697.5 656.0Q707.0 672.0 740.0 689.0Q757.0 698.0 839.5 698.0Q922.0 698.0 947.0 688.0Q974.0 679.0 982.5 657.5Q991.0 636.0 978.0 606.0Q955.0 549.0 982.0 522.0ZM780.0 862.0Q786.0 857.0 818.0 861.0Q864.0 868.0 970.0 876.0Q1076.0 884.0 1106.0 883.0Q1187.0 879.0 1320.5 882.5Q1454.0 886.0 1465.0 892.0Q1501.0 911.0 1502.0 948.0Q1502.0 973.0 1480.5 980.5Q1459.0 988.0 1412.0 980.0Q1362.0 971.0 1252.0 978.0Q1082.0 989.0 946.0 972.0Q900.0 966.0 817.0 971.0Q734.0 976.0 723.0 985.0Q699.0 1005.0 702.0 1108.0Q703.0 1162.0 686.0 1208.0Q669.0 1252.0 670.0 1297.0Q671.0 1332.0 662.0 1357.5Q653.0 1383.0 624.0 1426.0Q609.0 1447.0 588.5 1461.0Q568.0 1475.0 553.0 1475.0Q538.0 1475.0 531.0 1461.0Q523.0 1441.0 533.0 1388.5Q543.0 1336.0 566.0 1278.0Q577.0 1249.0 587.5 1186.5Q598.0 1124.0 598.0 1084.0Q598.0 1033.0 610.0 1005.0Q622.0 976.0 617.5 947.0Q613.0 918.0 628.0 899.0Q637.0 887.0 652.0 882.5Q667.0 878.0 709.0 874.0Q775.0 868.0 780.0 862.0ZM1113.0 1041.0Q1120.0 1036.0 1133.0 1038.0Q1147.0 1041.0 1151.0 1041.0Q1156.0 1042.0 1166.0 1080.0Q1175.0 1117.0 1188.0 1148.0Q1200.0 1178.0 1200.0 1214.0Q1200.0 1242.0 1205.5 1249.0Q1211.0 1256.0 1241.0 1269.0Q1258.0 1277.0 1281.0 1293.5Q1304.0 1310.0 1319.0 1326.0Q1357.0 1365.0 1431.0 1405.0Q1479.0 1432.0 1494.0 1444.0Q1509.0 1456.0 1515.0 1474.0Q1525.0 1502.0 1514.0 1518.0Q1499.0 1542.0 1454.5 1535.0Q1410.0 1528.0 1362.0 1494.0Q1337.0 1476.0 1297.0 1457.0Q1256.0 1438.0 1238.0 1414.0Q1216.0 1385.0 1182.5 1361.5Q1149.0 1338.0 1130.0 1338.0Q1111.0 1338.0 1080.0 1366.5Q1049.0 1395.0 1021.0 1440.0Q1002.0 1469.0 974.5 1479.5Q947.0 1490.0 890.0 1490.0Q844.0 1490.0 825.0 1484.5Q806.0 1479.0 802.0 1465.0Q797.0 1449.0 813.0 1437.5Q829.0 1426.0 869.5 1416.5Q910.0 1407.0 933.0 1388.5Q956.0 1370.0 966.0 1336.0Q977.0 1302.0 999.0 1282.0Q1027.0 1256.0 1048.5 1211.0Q1070.0 1166.0 1070.0 1132.0Q1070.0 1104.0 1081.5 1079.5Q1093.0 1055.0 1113.0 1041.0ZM860.0 1090.0Q892.0 1090.0 925.0 1121.0Q958.0 1152.0 958.0 1182.0Q958.0 1198.0 937.5 1215.0Q917.0 1232.0 902.0 1228.0Q886.0 1224.0 842.0 1184.0Q798.0 1144.0 798.0 1133.5Q798.0 1123.0 819.0 1106.5Q840.0 1090.0 860.0 1090.0ZM1326.0 1138.0Q1305.0 1161.0 1301.0 1177.0Q1297.0 1193.0 1307.0 1217.0Q1313.0 1233.0 1320.0 1237.5Q1327.0 1242.0 1346.0 1242.0Q1372.0 1242.0 1393.5 1229.0Q1415.0 1216.0 1426.5 1193.0Q1438.0 1170.0 1437.0 1160.5Q1436.0 1151.0 1418.0 1134.0Q1397.0 1113.0 1372.0 1114.0Q1347.0 1115.0 1326.0 1138.0Z" fill="black"></path></svg>